<?xml version="1.0" encoding="UTF-8" standalone="no"?>
<!-- Uploaded to: SVG Repo, www.svgrepo.com, Generator: SVG Repo Mixer Tools -->

<svg
   fill="#000000"
   width="800px"
   height="800px"
   viewBox="0 0 1920 1920"
   version="1.1"
   id="svg1"
   sodipodi:docname="compose.svg"
   inkscape:version="1.3.2 (091e20e, 2023-11-25, custom)"
   xmlns:inkscape="http://www.inkscape.org/namespaces/inkscape"
   xmlns:sodipodi="http://sodipodi.sourceforge.net/DTD/sodipodi-0.dtd"
   xmlns="http://www.w3.org/2000/svg"
   xmlns:svg="http://www.w3.org/2000/svg">
  <defs
     id="defs1" />
  <sodipodi:namedview
     id="namedview1"
     pagecolor="#ffffff"
     bordercolor="#000000"
     borderopacity="0.25"
     inkscape:showpageshadow="2"
     inkscape:pageopacity="0.0"
     inkscape:pagecheckerboard="0"
     inkscape:deskcolor="#d1d1d1"
     inkscape:zoom="1.00625"
     inkscape:cx="400"
     inkscape:cy="400"
     inkscape:window-width="2560"
     inkscape:window-height="1417"
     inkscape:window-x="1912"
     inkscape:window-y="-8"
     inkscape:window-maximized="1"
     inkscape:current-layer="svg1" />
  <path
     d="M909.191 303.66v101.02h-808.17v1414.3H1515.32v-721.494h101.021V1920H0V303.66h909.191ZM1562.132 0c40.51 0 78.494 15.76 106.982 44.348l206.588 206.488c58.997 59.097 58.997 155.27 0 214.266L1666.184 674.62l-349.432-349.332-818.778 818.778 277.91 277.91 723.514-723.414 71.422 71.422-857.367 857.266-526.018 105.164 105.264-525.917L1454.848 44.348C1483.437 15.76 1521.522 0 1562.03 0ZM426.552 1215.488l-40.711 40.812-69.503 347.413 347.412-69.503 40.712-40.813-277.91-277.91Zm884.007-677.469 71.422 71.422-624.716 624.716-71.422-71.422 624.716-624.716Zm251.573-436.998h-.1c-13.538 0-26.165 5.253-35.762 14.75l-138.096 138.095 278.01 277.91L1804.28 393.68c19.598-19.7 19.598-51.723 0-71.523L1597.692 115.77c-9.597-9.597-22.225-14.749-35.56-14.749Z"
     fill-rule="evenodd"
     id="path1"
     style="fill:#14b8a6;fill-opacity:1" />
  <path
     style="fill:#14b8a6;stroke-width:0.993789;fill-opacity:1"
     d="M 0.49689441,463.10559 V 126.70807 H 189.31677 378.13665 v 20.86957 20.86956 H 209.68944 41.242236 V 463.60248 758.75776 H 336.39752 631.5528 v -150.559 -150.55901 h 20.86956 20.86957 V 628.57143 799.50311 H 336.89441 0.49689441 Z"
     id="path2"
     transform="scale(2.4)" />
  <path
     style="fill:#14b8a6;stroke-width:0.993789;fill-opacity:1"
     d="M 0.49689441,463.10559 V 126.70807 H 189.31677 378.13665 v 20.86957 20.86956 H 209.68944 41.242236 V 463.60248 758.75776 H 336.39752 631.5528 v -150.559 -150.55901 h 20.86956 20.86957 V 628.57143 799.50311 H 336.89441 0.49689441 Z"
     id="path3"
     transform="scale(2.4)" />
  <path
     style="fill:#14b8a6;stroke-width:0.993789;fill-opacity:1"
     d="M 0.49689441,463.10559 V 126.70807 H 189.31677 378.13665 v 20.86957 20.86956 H 209.68944 41.242236 V 463.60248 758.75776 H 336.39752 631.5528 v -150.559 -150.55901 h 20.86956 20.86957 V 628.57143 799.50311 H 336.89441 0.49689441 Z"
     id="path4"
     transform="scale(2.4)" />
</svg>
